<?xml version="1.0" encoding="UTF-8"?>
<!DOCTYPE svg PUBLIC "-//W3C//DTD SVG 1.1//EN" "http://www.w3.org/Graphics/SVG/1.1/DTD/svg11.dtd">
<!-- Creator: CorelDRAW -->
<svg xmlns="http://www.w3.org/2000/svg" xml:space="preserve" width="96.06mm" height="61.56mm" version="1.1" style="shape-rendering:geometricPrecision; text-rendering:geometricPrecision; image-rendering:optimizeQuality; fill-rule:evenodd; clip-rule:evenodd"
viewBox="0 0 9614.77 6161.62"
 xmlns:xlink="http://www.w3.org/1999/xlink"
 xmlns:xodm="http://www.corel.com/coreldraw/odm/2003">
 <defs>
  <style type="text/css">
   <![CDATA[
    .fil1 {fill:#A7CA4E}
    .fil3 {fill:#F7B500}
    .fil2 {fill:#F9873E}
    .fil4 {fill:#373535;fill-rule:nonzero}
    .fil0 {fill:#A7CA4E;fill-rule:nonzero}
   ]]>
  </style>
 </defs>
 <g id="Layer_x0020_1">
  <metadata id="CorelCorpID_0Corel-Layer"/>
  <g id="_105553275035936">
   <path class="fil0" d="M960.04 3580.19l663.83 0 0 -1091.07 723.86 1091.07 741.51 0 -826.25 -1253.5 776.82 -1119.32 -670.89 0 -745.04 1091.07 0 -1091.07 -663.83 0 0 2372.82zm2258.97 0l1670.16 0 0 -476.68 -1013.39 0 0 -501.4 766.22 0 0 -466.1 -766.22 0 0 -451.96 981.62 0 0 -476.68 -1638.38 0 0 2372.82zm2400.21 0l667.36 0 0 -1896.14 621.46 0 0 -476.68 -1913.81 0 0 476.68 624.99 0 0 1896.14z"/>
   <path class="fil0" d="M960.04 6124.81l518.76 0 0 -1519.49 16.74 0 448.48 1519.49 438.44 0 451.83 -1516.14 13.39 0 0 1516.14 619.16 0 0 -2249.1 -833.37 0 -408.32 1355.49 -13.38 0 -408.32 -1355.49 -843.41 0 0 2249.1zm2767.77 0l1583.07 0 0 -451.83 -960.56 0 0 -475.25 726.27 0 0 -441.79 -726.27 0 0 -428.4 930.43 0 0 -451.82 -1552.95 0 0 2249.1zm1780.44 0l535.5 0 0 -1402.35 13.38 0 803.25 1402.35 599.1 0 0 -2249.1 -535.5 0 0 1258.43 -10.05 0 -726.27 -1258.43 -679.41 0 0 2249.1zm3172.73 36.81c639.26,0 933.78,-284.48 933.78,-843.41l0 -1439.16 -562.27 0 0 1415.73c0,291.18 -103.75,408.32 -351.42,408.32 -247.68,0 -364.81,-117.15 -364.81,-404.98l0 -1419.07 -632.56 0 0 1442.51c0,558.93 327.99,840.07 977.28,840.07z"/>
   <g>
    <path class="fil1" d="M8310.05 1141.57c720.58,0 1304.71,584.13 1304.71,1304.71 0,720.58 -584.13,1304.71 -1304.71,1304.71 -476.13,0 -892.62,-255.09 -1120.46,-636.01l1120.46 -668.7 0 -1304.71z"/>
    <path class="fil2" d="M7092.83 3090.12l1120.45 -668.7 -664.24 -1123.09c-383.39,227.24 -640.47,645.11 -640.47,1123.09 0,244.43 67.29,473.13 184.26,668.7z"/>
    <path class="fil3" d="M8240.54 1036.59l0 1304.72 -664.25 -1123.09c194.58,-115.35 421.64,-181.63 664.25,-181.63z"/>
   </g>
   <path class="fil4" d="M67.56 1817.9c11.11,72.47 35.61,116.18 85.32,150.1 46.8,34.36 81.13,26.13 96.33,-29.61 109.91,-405.48 259.52,-823 368.48,-1118.57 91.31,-236.51 149.61,-417.51 130.71,-521.42 152.53,-50.09 316.65,-101.94 443.5,-106.56 67.56,-4.42 73.83,-40.99 54,-73.54 -62.14,-115.07 -189.21,-131.2 -322.54,-110.76 -168.12,25.76 -619.91,175.12 -872.09,213.77 -40.59,6.23 -61.11,27.16 -46.63,63.52 49.21,108.16 184.07,155.72 372.49,126.85 40.58,-6.23 80.26,-18.24 122.86,-30.71 -194.65,433.32 -397.21,1066.61 -432.8,1318.31 -5.82,39.46 -4.95,83.83 0.38,118.61zm1800.12 -391.64c30.6,-90.73 6.12,-173.02 -9.48,-197.33 -31.64,-51.52 -79.58,-35.27 -101.01,18.46 -76.36,198.61 -193.53,421.27 -289.18,435.93 -37.68,5.79 -59.51,-20.53 -67.51,-72.71 -17.34,-113.04 65.5,-327.49 128.68,-476.6 75.68,-183.68 117.01,-320.54 101.89,-419.09 -9.77,-63.78 -31.38,-107.94 -66.58,-144.07 -42.34,-43.94 -86.95,-25.23 -119.08,36.05 -83.92,149.35 -129.06,358 -257.42,662.47 -112.28,254.56 -235.69,475.21 -311.06,486.77 -63.77,9.77 -71.52,-98.82 -37.11,-222.76 67.24,-238.75 227.3,-607.41 209.08,-726.26 -6.67,-43.48 -25.8,-90.98 -63.92,-126.68 -41.45,-38.14 -94.52,-35.94 -124.63,19.11 -141.06,279.74 -244.45,592.26 -280.24,784.65 -15.42,73.57 -16.81,142.01 -7.03,205.78 19.11,124.64 93.97,225.91 241.79,203.25 147.83,-22.66 264.49,-132.52 346.17,-257.78 31.59,128.67 131.44,199.4 302.46,173.19 179.71,-27.56 345.46,-204.27 404.2,-382.37z"/>
  </g>
 </g>
</svg>
